<svg width="1024" height="1024" viewBox="0 0 1024 1024" fill="none" xmlns="http://www.w3.org/2000/svg"><g clip-path="url(#a)"><circle cx="512" cy="512" r="512" fill="#2A2827"/><path d="M579.509 338.203 796 704.175h-51.545l-224.51-365.972c-21.763-33.791-41.496-35.516-71.018-1.719 45.246-62.427 80.755-75.218 130.582 1.719Z" fill="#fff"/><path d="M579.509 338.203 796 704.175h-51.545l-224.51-365.972c-21.763-33.791-41.496-35.516-71.018-1.719 45.246-62.427 80.755-75.218 130.582 1.719Z" fill="url(#b)"/><path d="M579.509 338.203 796 704.175h-51.545l-224.51-365.972c-21.763-33.791-41.496-35.516-71.018-1.719 45.246-62.427 80.755-75.218 130.582 1.719Z" fill="url(#c)"/><path d="M445.491 338.203 229 704.175h51.545l224.51-365.972c25.142-32.684 43.787-35.516 73.309-1.719-38.373-62.427-83.046-75.218-132.873 1.719Z" fill="#fff"/><path d="M445.491 338.203 229 704.175h51.545l224.51-365.972c25.142-32.684 43.787-35.516 73.309-1.719-38.373-62.427-83.046-75.218-132.873 1.719Z" fill="url(#d)"/><path d="m562.533 495.161 123.506 209.014h-50.024L507.934 495.161c-14.343-18.667-24.98-20.284-41.822-.982 21.891-35.653 67.995-42.958 96.421.982Z" fill="#fff"/><path d="m562.533 495.161 123.506 209.014h-50.024L507.934 495.161c-14.343-18.667-24.98-20.284-41.822-.982 21.891-35.653 67.995-42.958 96.421.982Z" fill="url(#e)"/><path d="m562.533 495.161 123.506 209.014h-50.024L507.934 495.161c-14.343-18.667-24.98-20.284-41.822-.982 21.891-35.653 67.995-42.958 96.421.982Z" fill="url(#f)"/><path d="M461.327 495.161 337.82 704.176h50.025l128.08-209.015c14.344-18.666 28.99-20.479 45.832-1.176-21.764-36.082-72.004-42.764-100.43 1.176Z" fill="#fff"/><path d="M461.327 495.161 337.82 704.176h50.025l128.08-209.015c14.344-18.666 28.99-20.479 45.832-1.176-21.764-36.082-72.004-42.764-100.43 1.176Z" fill="url(#g)"/></g><defs><linearGradient id="b" x1="740.381" y1="666.098" x2="481.598" y2="428.71" gradientUnits="userSpaceOnUse"><stop stop-color="#FF8506"/><stop offset=".581" stop-color="#FD3947"/><stop offset="1" stop-color="#FB0078"/></linearGradient><linearGradient id="c" x1="728.85" y1="656.555" x2="548.733" y2="324.466" gradientUnits="userSpaceOnUse"><stop stop-color="#FB126A" stop-opacity="0"/><stop offset=".139" stop-color="#F41169" stop-opacity=".139"/><stop offset=".337" stop-color="#E20F67" stop-opacity=".337"/><stop offset=".569" stop-color="#C30A64" stop-opacity=".569"/><stop offset=".827" stop-color="#99045F" stop-opacity=".827"/><stop offset="1" stop-color="#78005B"/></linearGradient><linearGradient id="d" x1="284.987" y1="666.098" x2="543.91" y2="427.013" gradientUnits="userSpaceOnUse"><stop stop-color="#FF8506"/><stop offset=".581" stop-color="#FD3947"/><stop offset="1" stop-color="#FB0078"/></linearGradient><linearGradient id="e" x1="650.795" y1="682.429" x2="502.471" y2="531.468" gradientUnits="userSpaceOnUse"><stop stop-color="#FF8506"/><stop offset=".581" stop-color="#FD3947"/><stop offset="1" stop-color="#FB0078"/></linearGradient><linearGradient id="f" x1="643.489" y1="676.978" x2="546.642" y2="478.865" gradientUnits="userSpaceOnUse"><stop stop-color="#FB126A" stop-opacity="0"/><stop offset=".139" stop-color="#F41169" stop-opacity=".139"/><stop offset=".337" stop-color="#E20F67" stop-opacity=".337"/><stop offset=".569" stop-color="#C30A64" stop-opacity=".569"/><stop offset=".827" stop-color="#99045F" stop-opacity=".827"/><stop offset="1" stop-color="#78005B"/></linearGradient><linearGradient id="g" x1="373.707" y1="682.407" x2="522.117" y2="528.762" gradientUnits="userSpaceOnUse"><stop stop-color="#FF8506"/><stop offset=".581" stop-color="#FD3947"/><stop offset="1" stop-color="#FB0078"/></linearGradient><clipPath id="a"><path fill="#fff" d="M0 0h1024v1024H0z"/></clipPath></defs></svg>