<svg width="1024" height="1024" viewBox="0 0 1024 1024" fill="none" xmlns="http://www.w3.org/2000/svg"><g clip-path="url(#a)"><circle cx="512.001" cy="512" r="512" fill="#171717"/><path d="M469.013 575.88c20.052-32.657 62.281-39.348 88.318.899l75.142 127.165h-47.227l-77.925-127.165c-13.138-17.098-22.881-18.579-38.308-.899Z" fill="#fff"/><path d="M469.013 575.88c20.052-32.657 62.281-39.348 88.318.899l75.142 127.165h-47.227l-77.925-127.165c-13.138-17.098-22.881-18.579-38.308-.899Z" fill="url(#b)"/><path d="M469.013 575.88c20.052-32.657 62.281-39.348 88.318.899l75.142 127.165h-47.227l-77.925-127.165c-13.138-17.098-22.881-18.579-38.308-.899Z" fill="url(#c)"/><path d="M556.62 575.703c-19.934-33.05-65.952-39.17-91.989 1.077l-73.902 125.068h47.273l76.639-125.068c13.138-17.098 26.553-18.758 41.979-1.077Z" fill="#fff"/><path d="M556.62 575.703c-19.934-33.05-65.952-39.17-91.989 1.077l-73.902 125.068h47.273l76.639-125.068c13.138-17.098 26.553-18.758 41.979-1.077Z" fill="url(#d)"/><path d="m572.881 368.731 198.297 335.216h-47.214l-205.64-335.216c-19.935-30.951-38.009-32.531-65.05-1.574 41.443-57.18 73.968-68.896 119.607 1.574Z" fill="#fff"/><path d="m572.881 368.731 198.297 335.216h-47.214l-205.64-335.216c-19.935-30.951-38.009-32.531-65.05-1.574 41.443-57.18 73.968-68.896 119.607 1.574Z" fill="url(#e)"/><path d="m572.881 368.731 198.297 335.216h-47.214l-205.64-335.216c-19.935-30.951-38.009-32.531-65.05-1.574 41.443-57.18 73.968-68.896 119.607 1.574Z" fill="url(#f)"/><path d="M450.127 368.731 251.83 703.946h47.214l205.64-335.215c21.818-30.231 40.107-32.531 67.148-1.574-35.147-57.18-76.066-68.896-121.705 1.574Z" fill="#fff"/><path d="M450.127 368.731 251.83 703.946h47.214l205.64-335.215c21.818-30.231 40.107-32.531 67.148-1.574-35.147-57.18-76.066-68.896-121.705 1.574Z" fill="url(#g)"/></g><defs><linearGradient id="b" x1="638.175" y1="748.309" x2="502.316" y2="610.034" gradientUnits="userSpaceOnUse"><stop stop-color="#FF8506"/><stop offset=".581" stop-color="#FD3947"/><stop offset="1" stop-color="#FB0078"/></linearGradient><linearGradient id="c" x1="631.482" y1="743.316" x2="542.775" y2="561.852" gradientUnits="userSpaceOnUse"><stop stop-color="#FB126A" stop-opacity="0"/><stop offset=".139" stop-color="#F41169" stop-opacity=".139"/><stop offset=".337" stop-color="#E20F67" stop-opacity=".337"/><stop offset=".569" stop-color="#C30A64" stop-opacity=".569"/><stop offset=".827" stop-color="#99045F" stop-opacity=".827"/><stop offset="1" stop-color="#78005B"/></linearGradient><linearGradient id="d" x1="417.313" y1="687.938" x2="510.64" y2="575.922" gradientUnits="userSpaceOnUse"><stop stop-color="#FF8506"/><stop offset=".581" stop-color="#FD3947"/><stop offset="1" stop-color="#FB0078"/></linearGradient><linearGradient id="e" x1="720.233" y1="669.07" x2="483.199" y2="451.632" gradientUnits="userSpaceOnUse"><stop stop-color="#FF8506"/><stop offset=".581" stop-color="#FD3947"/><stop offset="1" stop-color="#FB0078"/></linearGradient><linearGradient id="f" x1="709.672" y1="660.328" x2="544.692" y2="356.149" gradientUnits="userSpaceOnUse"><stop stop-color="#FB126A" stop-opacity="0"/><stop offset=".139" stop-color="#F41169" stop-opacity=".139"/><stop offset=".337" stop-color="#E20F67" stop-opacity=".337"/><stop offset=".569" stop-color="#C30A64" stop-opacity=".569"/><stop offset=".827" stop-color="#99045F" stop-opacity=".827"/><stop offset="1" stop-color="#78005B"/></linearGradient><linearGradient id="g" x1="303.111" y1="669.07" x2="540.274" y2="450.078" gradientUnits="userSpaceOnUse"><stop stop-color="#FF8506"/><stop offset=".581" stop-color="#FD3947"/><stop offset="1" stop-color="#FB0078"/></linearGradient><clipPath id="a"><path fill="#fff" d="M0 0h1024v1024H0z"/></clipPath></defs></svg>