<svg width="64" height="64" viewBox="0 0 64 64" fill="none" xmlns="http://www.w3.org/2000/svg"><g clip-path="url(#a)"><circle cx="32" cy="32" r="32" fill="#2A2827"/><path d="m53.7 28.76-9.94-12.913c-.74-.962-1.886-1.514-3.141-1.514-1.256 0-2.4.552-3.14 1.514l-1.081 1.405-1.081-1.405c-.741-.962-1.885-1.514-3.14-1.514-1.256 0-2.4.552-3.141 1.514l-1.069 1.388-1.068-1.388c-.74-.962-1.886-1.514-3.141-1.514-1.256 0-2.4.552-3.14 1.514l-9.94 12.914c-1.415 1.838-1.415 4.306 0 6.144l9.94 12.914c.74.962 1.884 1.514 3.14 1.514 1.256 0 2.4-.551 3.14-1.514l5.29-6.872 1.092 1.418.012.015 4.186 5.44c.741.961 1.885 1.513 3.14 1.513 1.256 0 2.4-.551 3.142-1.514l9.94-12.913c1.414-1.838 1.414-4.307 0-6.145ZM30.622 16.948a1.94 1.94 0 0 1 1.554-.75 1.94 1.94 0 0 1 1.554.75l1.452 1.885-2.993 3.888-3.005-3.904 1.438-1.87Zm-5.31 29.772a1.94 1.94 0 0 1-1.554.75 1.942 1.942 0 0 1-1.554-.75l-9.94-12.914a3.197 3.197 0 0 1 0-3.945l9.94-12.913a1.94 1.94 0 0 1 1.554-.75 1.94 1.94 0 0 1 1.554.75l1.438 1.868-7.655 9.946c-1.415 1.838-1.415 4.306.003 6.148l.583.75 5.132 6.706a3.89 3.89 0 0 0 2.703 1.491l-2.204 2.863Zm4.198-5.453h-.001a1.94 1.94 0 0 1-1.555.748 1.94 1.94 0 0 1-1.552-.747l-5.276-6.897-.003.002-.441-.567a3.196 3.196 0 0 1 0-3.946l7.285-9.463 3.006 3.904-3.434 4.46c-1.414 1.839-1.414 4.307 0 6.145l3.434 4.46-1.463 1.901Zm2.678-15.386 3.064 3.98a3.196 3.196 0 0 1 0 3.946l-3.064 3.98-3.063-3.98a3.196 3.196 0 0 1 0-3.945l3.063-3.98Zm4.651 9.025c1.415-1.838 1.415-4.306 0-6.144l-3.433-4.46 2.992-3.889 7.273 9.449a3.199 3.199 0 0 1-.004 3.95l-1.165 1.537-4.527 5.917a1.94 1.94 0 0 1-1.554.75 1.94 1.94 0 0 1-1.542-.735l-1.473-1.914 3.433-4.46Zm15.275-1.099-9.94 12.913a1.94 1.94 0 0 1-1.555.75 1.942 1.942 0 0 1-1.554-.75l-2.205-2.864a3.892 3.892 0 0 0 2.702-1.492l3.89-5.084.004.003.637-.842.745-.974-.005-.003.423-.558c1.414-1.838 1.414-4.306 0-6.144l-7.642-9.929 1.451-1.885a1.94 1.94 0 0 1 1.555-.75c.621 0 1.187.274 1.554.75l9.94 12.914a3.199 3.199 0 0 1 0 3.945Z" fill="url(#b)"/><path opacity=".6" d="M27.955 43.88c-.15 0-.3-.01-.446-.025l-2.135 2.792 1.61 1.078 3.902-5.085c-.737.79-1.802 1.24-2.931 1.24Z" fill="url(#c)"/><path opacity=".6" d="M36.411 43.88c.151 0 .3-.01.447-.025l2.134 2.792-1.609 1.078-3.883-5.08c.737.79 1.783 1.234 2.911 1.234Z" fill="url(#d)"/><path opacity=".6" d="m30.958 39.354 1.242 1.608-1.888 2.403-1.24-1.561 1.886-2.45Z" fill="url(#e)"/><path d="m26.751 18.814 1.221 1.593-4.419 5.76-1.545-1.159 4.743-6.194Z" fill="url(#f)"/><path d="m30.975 24.296 1.208 1.593-2.817 3.696-1.546-1.159 3.155-4.13Z" fill="url(#g)"/><path d="m35.182 18.83 1.216 1.584-2.989 3.881-1.218-1.582 2.991-3.883Z" fill="url(#h)"/></g><defs><linearGradient id="b" x1="16.803" y1="45.058" x2="37.225" y2="16.067" gradientUnits="userSpaceOnUse"><stop stop-color="#FF8506"/><stop offset=".581" stop-color="#FD3947"/><stop offset="1" stop-color="#FB0078"/></linearGradient><linearGradient id="c" x1="29.65" y1="42.601" x2="26.55" y2="47.223" gradientUnits="userSpaceOnUse"><stop stop-color="#78005B"/><stop offset=".348" stop-color="#7A025A" stop-opacity=".652"/><stop offset=".51" stop-color="#820955" stop-opacity=".49"/><stop offset=".633" stop-color="#8E154E" stop-opacity=".367"/><stop offset=".737" stop-color="#A12643" stop-opacity=".263"/><stop offset=".828" stop-color="#B83C36" stop-opacity=".172"/><stop offset=".911" stop-color="#D65725" stop-opacity=".089"/><stop offset=".986" stop-color="#F87711" stop-opacity=".014"/><stop offset="1" stop-color="#FF7E0D" stop-opacity="0"/></linearGradient><linearGradient id="d" x1="37.778" y1="46.738" x2="34.863" y2="42.32" gradientUnits="userSpaceOnUse"><stop stop-color="#FF7E0D" stop-opacity="0"/><stop offset=".009" stop-color="#F97811" stop-opacity=".013"/><stop offset=".065" stop-color="#D65825" stop-opacity=".089"/><stop offset=".127" stop-color="#B93D36" stop-opacity=".173"/><stop offset=".195" stop-color="#A12643" stop-opacity=".266"/><stop offset=".272" stop-color="#8F154E" stop-opacity=".371"/><stop offset=".363" stop-color="#820955" stop-opacity=".495"/><stop offset=".482" stop-color="#7A025A" stop-opacity=".657"/><stop offset=".734" stop-color="#78005B"/></linearGradient><linearGradient id="e" x1="29.759" y1="42.579" x2="32.117" y2="39.006" gradientUnits="userSpaceOnUse"><stop stop-color="#FF7E0D" stop-opacity="0"/><stop offset=".013" stop-color="#F97910" stop-opacity=".019"/><stop offset=".114" stop-color="#D25427" stop-opacity=".166"/><stop offset=".219" stop-color="#B1363A" stop-opacity=".318"/><stop offset=".326" stop-color="#981E48" stop-opacity=".473"/><stop offset=".438" stop-color="#860D53" stop-opacity=".634"/><stop offset=".555" stop-color="#7B0359" stop-opacity=".805"/><stop offset=".69" stop-color="#78005B"/></linearGradient><linearGradient id="f" x1="22.254" y1="25.241" x2="27.594" y2="19.614" gradientUnits="userSpaceOnUse"><stop stop-color="#FF4630" stop-opacity="0"/><stop offset=".572" stop-color="#B31F48" stop-opacity=".572"/><stop offset="1" stop-color="#78005B"/></linearGradient><linearGradient id="g" x1="28.213" y1="28.799" x2="31.77" y2="25.05" gradientUnits="userSpaceOnUse"><stop stop-color="#FF4630" stop-opacity="0"/><stop offset=".572" stop-color="#B31F48" stop-opacity=".572"/><stop offset="1" stop-color="#78005B"/></linearGradient><linearGradient id="h" x1="32.413" y1="23.35" x2="35.982" y2="19.589" gradientUnits="userSpaceOnUse"><stop stop-color="#FF4630" stop-opacity="0"/><stop offset=".572" stop-color="#B31F48" stop-opacity=".572"/><stop offset="1" stop-color="#78005B"/></linearGradient><clipPath id="a"><path fill="#fff" d="M0 0h64v64H0z"/></clipPath></defs></svg>