<svg width="192" height="160" viewBox="0 0 192 160" fill="none" xmlns="http://www.w3.org/2000/svg"><circle opacity=".64" cx="110.068" cy="79.157" r="72.157" fill="#F1F1F1"/><g clip-path="url(#clip0)"><path d="M88.413 102.342c0-5.41 3.33-9.68 8.345-12.614a45.61 45.61 0 00-3.573-8.635c-5.623 1.472-10.174-.73-14-4.556-3.826-3.826-4.997-8.379-3.525-14a45.444 45.444 0 00-8.634-3.574c-2.936 5.015-8.237 8.344-13.647 8.344s-10.71-3.329-13.647-8.344c-3.019.902-5.91 2.1-8.633 3.571 1.47 5.623.3 10.176-3.525 14.003-3.826 3.825-8.379 6.028-14.001 4.558A45.48 45.48 0 0010 89.728c5.014 2.934 8.344 7.205 8.344 12.614 0 5.409-3.33 10.711-8.344 13.646.903 3.02 2.1 5.911 3.573 8.635 5.622-1.472 10.175-.301 14 3.525 3.825 3.827 4.996 8.377 3.526 14a45.502 45.502 0 008.634 3.572c2.936-5.015 8.237-8.346 13.646-8.346 5.41 0 10.711 3.331 13.647 8.346a45.488 45.488 0 008.635-3.574c-1.47-5.621-.302-10.172 3.524-13.999 3.826-3.826 8.377-6.03 14-4.558a45.571 45.571 0 003.573-8.635c-5.015-2.934-8.344-7.203-8.344-12.612zM53.38 121.207c-10.418 0-18.865-8.446-18.865-18.865 0-10.42 8.446-18.866 18.865-18.866 10.419 0 18.864 8.447 18.864 18.866 0 10.418-8.445 18.865-18.864 18.865z" fill="#DDD"/><path d="M27.927 76.89h0c1.967-1.967 3.268-4.14 3.88-6.558.584-2.31.534-4.814-.128-7.541a45.08 45.08 0 017.825-3.236c3.051 4.958 8.389 8.252 13.875 8.252 5.487 0 10.824-3.294 13.875-8.252a44.937 44.937 0 017.826 3.238c-.662 2.726-.713 5.23-.129 7.54.613 2.418 1.914 4.59 3.88 6.557 3.817 3.816 8.42 6.117 14.097 4.782a45.126 45.126 0 013.238 7.827c-4.922 2.984-8.252 7.322-8.252 12.843 0 5.52 3.33 9.858 8.252 12.841a45.07 45.07 0 01-3.238 7.827c-5.676-1.334-10.28.967-14.096 4.783v.001c-1.967 1.967-3.268 4.139-3.88 6.557-.584 2.309-.533 4.813.129 7.539a44.949 44.949 0 01-7.827 3.238c-3.05-4.958-8.388-8.254-13.875-8.254-5.486 0-10.823 3.296-13.874 8.254a44.98 44.98 0 01-7.826-3.237c.662-2.726.712-5.23.128-7.539-.613-2.419-1.913-4.59-3.88-6.557v-.001c-1.967-1.966-4.138-3.267-6.557-3.88-2.31-.584-4.814-.533-7.54.129a45.133 45.133 0 01-3.238-7.827c4.958-3.05 8.252-8.388 8.252-13.874 0-5.52-3.33-9.86-8.252-12.843a44.985 44.985 0 013.238-7.825c5.676 1.333 10.28-.968 14.097-4.784zm6.087 25.452c0 10.695 8.67 19.365 19.365 19.365 10.695 0 19.364-8.671 19.364-19.365 0-10.695-8.669-19.366-19.364-19.366s-19.365 8.67-19.365 19.366z" stroke="#fff" stroke-opacity=".24"/></g><g clip-path="url(#clip1)"><path d="M146.469 72.828c-.9-3.359.457-6.565 3.083-9.221a29.368 29.368 0 00-3.655-4.767c-3.247 1.85-6.44 1.238-9.452-.5-3.012-1.74-4.497-4.372-4.518-8.107a29.202 29.202 0 00-5.956-.783c-.988 3.603-3.727 6.552-7.086 7.452-3.359.9-7.204-.285-9.862-2.91a29.29 29.29 0 00-4.767 3.654c1.849 3.246 1.88 6.268.141 9.28-1.739 3.013-4.2 5.138-7.936 5.161a29.244 29.244 0 00-.782 5.955c3.602.988 6.38 3.085 7.28 6.444.9 3.359-.285 7.206-2.91 9.862a29.29 29.29 0 003.655 4.768c3.246-1.85 6.268-1.88 9.28-.14 3.012 1.739 4.496 4.37 4.518 8.106a29.26 29.26 0 005.956.781c.989-3.602 3.726-6.552 7.085-7.452 3.359-.9 7.206.286 9.863 2.911a29.257 29.257 0 004.767-3.656c-1.848-3.245-1.88-6.266-.141-9.279 1.739-3.012 4.199-5.138 7.935-5.16.462-1.936.724-3.93.782-5.956-3.602-.987-6.38-3.085-7.28-6.443zm-18.616 17.544c-6.469 1.733-13.119-2.106-14.853-8.576-1.733-6.47 2.106-13.12 8.575-14.854 6.47-1.733 13.12 2.107 14.853 8.576 1.734 6.47-2.105 13.12-8.575 14.854z" fill="#DDD"/><path d="M104.83 67.177h0c.908-1.573 1.365-3.17 1.342-4.81-.022-1.526-.457-3.06-1.29-4.621a28.803 28.803 0 014.076-3.125c2.753 2.542 6.625 3.684 10.056 2.764 3.433-.92 6.215-3.844 7.327-7.421 1.73.072 3.433.295 5.094.668.059 1.768.449 3.315 1.193 4.647.801 1.432 1.995 2.586 3.567 3.493 3.001 1.733 6.268 2.422 9.6.692a28.826 28.826 0 013.126 4.077c-2.525 2.681-3.863 5.952-2.935 9.416.928 3.465 3.722 5.627 7.249 6.687a28.786 28.786 0 01-.668 5.093c-3.751.168-6.235 2.4-7.968 5.4h0c-.907 1.573-1.364 3.17-1.341 4.81.021 1.525.457 3.06 1.289 4.62a28.737 28.737 0 01-4.077 3.125c-2.752-2.541-6.624-3.684-10.056-2.764-3.432.919-6.213 3.845-7.326 7.422a28.666 28.666 0 01-5.093-.668c-.06-1.768-.45-3.314-1.194-4.646-.801-1.432-1.995-2.586-3.567-3.494h0c-1.572-.908-3.168-1.365-4.809-1.342-1.526.021-3.061.457-4.622 1.29a28.866 28.866 0 01-3.125-4.078c2.542-2.751 3.684-6.623 2.764-10.055-.928-3.464-3.722-5.628-7.25-6.688a28.73 28.73 0 01.67-5.092c3.75-.169 6.235-2.4 7.968-5.4zm7.687 14.748c1.805 6.737 8.73 10.735 15.466 8.93 6.736-1.805 10.733-8.73 8.928-15.466-1.805-6.737-8.728-10.735-15.465-8.93-6.737 1.805-10.734 8.73-8.929 15.466z" stroke="#fff" stroke-opacity=".24"/></g><g clip-path="url(#clip2)"><path d="M168.968 119.137c-.763-2.849.388-5.568 2.615-7.821a24.86 24.86 0 00-3.101-4.044c-2.753 1.569-5.462 1.051-8.016-.424-2.555-1.475-3.815-3.708-3.833-6.876a24.768 24.768 0 00-5.052-.664c-.838 3.056-3.161 5.557-6.01 6.321-2.849.763-6.111-.242-8.365-2.469a24.905 24.905 0 00-4.044 3.099c1.569 2.754 1.595 5.317.12 7.873-1.475 2.555-3.562 4.358-6.731 4.377a24.845 24.845 0 00-.664 5.051c3.056.838 5.412 2.617 6.176 5.466.763 2.849-.243 6.112-2.47 8.365a24.916 24.916 0 003.101 4.044c2.754-1.569 5.317-1.594 7.872-.119 2.554 1.475 3.813 3.707 3.832 6.876 1.642.391 3.334.614 5.052.662.839-3.055 3.16-5.557 6.009-6.321 2.85-.763 6.112.243 8.366 2.47a24.83 24.83 0 004.044-3.101c-1.568-2.753-1.595-5.315-.12-7.871 1.475-2.555 3.562-4.358 6.731-4.376.391-1.643.614-3.335.663-5.053-3.055-.837-5.412-2.616-6.175-5.465zm-15.79 14.881c-5.487 1.47-11.128-1.786-12.599-7.274-1.47-5.488 1.786-11.128 7.274-12.599 5.488-1.47 11.128 1.786 12.598 7.274 1.471 5.488-1.785 11.129-7.273 12.599z" fill="#DDD"/><path d="M133.715 114.382h0c.776-1.344 1.168-2.712 1.148-4.119-.018-1.291-.382-2.588-1.075-3.903a24.407 24.407 0 013.355-2.571c2.348 2.144 5.636 3.106 8.557 2.323 2.922-.783 5.289-3.259 6.25-6.29 1.423.062 2.825.246 4.192.55.057 1.485.39 2.79 1.02 3.917.686 1.228 1.71 2.216 3.054 2.992 2.543 1.469 5.325 2.065 8.164.615a24.414 24.414 0 012.572 3.355c-2.127 2.279-3.258 5.062-2.467 8.016.791 2.953 3.163 4.798 6.144 5.707a24.367 24.367 0 01-.55 4.192c-3.184.164-5.294 2.072-6.763 4.615h0c-.775 1.344-1.168 2.712-1.148 4.118.018 1.292.383 2.588 1.075 3.902a24.216 24.216 0 01-3.355 2.572c-2.348-2.143-5.636-3.106-8.558-2.323-2.922.783-5.287 3.26-6.249 6.291a24.366 24.366 0 01-4.192-.549c-.057-1.485-.39-2.79-1.02-3.917-.686-1.228-1.71-2.216-3.053-2.992h0c-1.344-.776-2.711-1.169-4.119-1.149-1.291.018-2.587.382-3.902 1.075a24.335 24.335 0 01-2.572-3.355c2.144-2.348 3.105-5.636 2.323-8.557-.792-2.954-3.163-4.799-6.145-5.709.063-1.422.247-2.824.55-4.19 3.184-.165 5.295-2.072 6.764-4.616zm6.381 12.491c1.542 5.755 7.457 9.17 13.211 7.628 5.755-1.542 9.169-7.457 7.627-13.211-1.542-5.755-7.456-9.17-13.211-7.628-5.754 1.542-9.169 7.457-7.627 13.211z" stroke="#fff" stroke-opacity=".24"/></g><defs><clipPath id="clip0"><path fill="#fff" transform="translate(10 58.963)" d="M0 0h86.758v86.758H0z"/></clipPath><clipPath id="clip1"><path fill="#fff" transform="rotate(-15 269.121 -314.468)" d="M0 0h55.773v55.773H0z"/></clipPath><clipPath id="clip2"><path fill="#fff" transform="rotate(-15 468.498 -407.939)" d="M0 0h47.307v47.307H0z"/></clipPath></defs></svg>