<svg width="256" height="256" viewBox="0 0 256 256" fill="none" xmlns="http://www.w3.org/2000/svg"><path d="M128 256c70.692 0 128-57.308 128-128C256 57.308 198.692 0 128 0 57.308 0 0 57.308 0 128c0 70.692 57.308 128 128 128z" fill="#fff"/><path d="M199.613 151.871H56.397v47.742h143.216v-47.742z" fill="#FFB0A6"/><path d="M199.613 104.129H56.397v47.742h143.216v-47.742z" fill="#FFD0A8"/><path d="M199.613 56.397H56.397v47.742h143.216V56.397zm-25.431 0h25.431V30.965a29.979 29.979 0 01-25.431 25.432z" fill="#FFE8D7"/><path d="M127.971 56.397l54.594 25.257-18.734 10.544-35.86-35.801zm71.613 0v25.257h-17.019l-54.594 54.594v10.564l12.822 12.822 14.47-9.692 25.364-9.071h17.804a71.608 71.608 0 01-52.221 56.376 71.602 71.602 0 11-18.239-140.85V26.73a101.28 101.28 0 1071.613 29.667zM149.06 46.86a4.586 4.586 0 01-.678 2.49 4.714 4.714 0 01-1.938 1.707 6.99 6.99 0 01-5.757 0 4.682 4.682 0 01-1.939-1.706 4.595 4.595 0 01-.678-2.49V31.43h-5.689v15.875a7.992 7.992 0 001.395 4.681 9.184 9.184 0 003.877 3.12 15.904 15.904 0 0011.698 0 9.23 9.23 0 003.877-3.12 7.992 7.992 0 001.395-4.681V31.43h-5.689l.126 15.43zm27.564-15.43v15.372h-.194L164.8 31.43h-4.991v24.442h5.689v-15.38h.194l11.707 15.38h4.904V31.431h-5.679zm10.719 0v24.444h5.689V31.43h-5.689z" fill="url(#paint0_linear_1611_1878)"/><path d="M209.625 68.037a86.54 86.54 0 01-72.138 135.947 86.54 86.54 0 01-57.452-22.805c-.455-.417-.891-.853-1.347-1.279-.456-.427-.892-.834-1.318-1.26l-.32-.33a86.527 86.527 0 0150.921-146.763V26.7a101.269 101.269 0 1081.625 41.307l.029.029z" fill="url(#paint1_radial_1611_1878)"/><defs><radialGradient id="paint1_radial_1611_1878" cx="0" cy="0" r="1" gradientUnits="userSpaceOnUse" gradientTransform="rotate(47.27 -130.948 116.222) scale(133.631 124.277)"><stop stop-color="#FF9A8A"/><stop offset="1" stop-color="#FF007A"/></radialGradient><linearGradient id="paint0_linear_1611_1878" x1="26.73" y1="128" x2="229.27" y2="128" gradientUnits="userSpaceOnUse"><stop stop-color="#2E3192"/><stop offset="1" stop-color="#FF7D8A"/></linearGradient></defs></svg>