<svg width="178" height="44" viewBox="0 0 178 44" fill="none" xmlns="http://www.w3.org/2000/svg"><path d="M27.91 12.877a5.208 5.208 0 00-7.114 1.906l-8.709 15.083a.92.92 0 00.337 1.257 5.208 5.208 0 007.114-1.906l8.708-15.083a.92.92 0 00-.336-1.257z" stroke="url(#paint0_linear)" stroke-width="1.545"/><path d="M23.212 30.915c0 .508.412.92.92.92h2.752a5.206 5.206 0 005.206-5.206.92.92 0 00-.92-.92h-2.752a5.206 5.206 0 00-5.206 5.206z" stroke="url(#paint1_linear)" stroke-width="1.545"/><path d="M66.208 16.664l-5.44 8.496-5.408-8.496h-2.144V27h2.144v-6.56L59.6 27h2.368l4.24-6.592V27h2.128V16.664h-2.128zM81.994 27h2.32l-4.896-10.336h-2.32L72.234 27h2.304l1.072-2.352h5.312L81.994 27zm-5.664-3.936l1.936-4.256 1.936 4.256H76.33zm21.633-6.4v4.272h-7.6v-4.272H88.22V27h2.144v-4.288h7.6V27h2.128V16.664h-2.128zM113.732 27h2.32l-4.896-10.336h-2.32L103.972 27h2.304l1.072-2.352h5.312L113.732 27zm-5.664-3.936l1.936-4.256 1.936 4.256h-3.872zm14.033 2.176v-8.576h-2.144V27h1.296v.016h7.712V25.24h-6.864zm13.384 0v-2.736h6.512v-1.312h-6.512V18.44h7.968v-1.776h-10.112V27h10.128v-1.76h-7.984zm22.393-8.576V24.2l-7.696-7.536h-2.144V27h2.144v-7.504L157.878 27h2.128V16.664h-2.128zm12.902 0h-5.92V27h5.92c4.464 0 6.08-2.464 6.08-5.2s-1.408-5.136-6.08-5.136zm-.048 8.496h-3.728v-6.656h3.728c3.072 0 3.952 1.536 3.952 3.296 0 1.76-.88 3.36-3.952 3.36z" fill="#fff"/><path d="M79.63 16.953a1.616 1.616 0 00-1.5-.997c-.679 0-1.26.41-1.498.992l-4.706 10.027h2.367l1.056-2.324h5.571l1.058 2.325h2.39l-4.739-10.023zm-3.453 5.87l1.95-4.297 1.957 4.297h-3.907zm35.527-5.87a1.617 1.617 0 00-1.5-.997c-.678 0-1.259.41-1.498.992L104 26.975h2.368l1.055-2.324h5.572l1.057 2.325h2.39l-4.738-10.023zm-3.452 5.87l1.949-4.297 1.957 4.297h-3.906z" fill="#fff"/><defs><linearGradient id="paint0_linear" x1="12.719" y1="32.656" x2="23.581" y2="34.651" gradientUnits="userSpaceOnUse"><stop stop-color="#FF8506"/><stop offset=".581" stop-color="#FD3947"/><stop offset="1" stop-color="#FB0078"/></linearGradient><linearGradient id="paint1_linear" x1="23.977" y1="32.184" x2="32.259" y2="29.585" gradientUnits="userSpaceOnUse"><stop stop-color="#FF8506"/><stop offset=".581" stop-color="#FD3947"/><stop offset="1" stop-color="#FB0078"/></linearGradient></defs></svg>